<svg xmlns="http://www.w3.org/2000/svg" width="1200" height="720" viewBox="0 0 1200 720">
<rect width="100%" height="100%" fill="#ffffff"/>
<style>text{font-family:-apple-system,BlinkMacSystemFont,"Segoe UI",sans-serif;fill:#111827}.title{font-size:24px;font-weight:700}.label{font-size:14px}.tick{font-size:12px;fill:#4b5563}.legend{font-size:15px}.note{font-size:12px;fill:#374151}</style>
<text class="title" x="95" y="34">Cumulative Population-Normalized Drug Death Counts</text>
<text class="label" x="95" y="56">Preble, Hocking, and Vinton counties; same cumulative transform used by ohio_vineyards.py</text>
<line x1="95" y1="615.00" x2="1155" y2="615.00" stroke="#e5e7eb" stroke-width="1"/>
<text class="tick" x="83" y="619.00" text-anchor="end">0.000</text>
<line x1="95" y1="538.90" x2="1155" y2="538.90" stroke="#e5e7eb" stroke-width="1"/>
<text class="tick" x="83" y="542.90" text-anchor="end">0.001</text>
<line x1="95" y1="462.81" x2="1155" y2="462.81" stroke="#e5e7eb" stroke-width="1"/>
<text class="tick" x="83" y="466.81" text-anchor="end">0.002</text>
<line x1="95" y1="386.71" x2="1155" y2="386.71" stroke="#e5e7eb" stroke-width="1"/>
<text class="tick" x="83" y="390.71" text-anchor="end">0.003</text>
<line x1="95" y1="310.61" x2="1155" y2="310.61" stroke="#e5e7eb" stroke-width="1"/>
<text class="tick" x="83" y="314.61" text-anchor="end">0.004</text>
<line x1="95" y1="234.51" x2="1155" y2="234.51" stroke="#e5e7eb" stroke-width="1"/>
<text class="tick" x="83" y="238.51" text-anchor="end">0.005</text>
<line x1="95" y1="158.42" x2="1155" y2="158.42" stroke="#e5e7eb" stroke-width="1"/>
<text class="tick" x="83" y="162.42" text-anchor="end">0.006</text>
<line x1="95" y1="82.32" x2="1155" y2="82.32" stroke="#e5e7eb" stroke-width="1"/>
<text class="tick" x="83" y="86.32" text-anchor="end">0.007</text>
<line x1="95.00" y1="55" x2="95.00" y2="615" stroke="#f3f4f6" stroke-width="1"/>
<text class="tick" x="95.00" y="639" text-anchor="middle">2007</text>
<line x1="215.00" y1="55" x2="215.00" y2="615" stroke="#f3f4f6" stroke-width="1"/>
<text class="tick" x="215.00" y="639" text-anchor="middle">2009</text>
<line x1="335.00" y1="55" x2="335.00" y2="615" stroke="#f3f4f6" stroke-width="1"/>
<text class="tick" x="335.00" y="639" text-anchor="middle">2011</text>
<line x1="455.00" y1="55" x2="455.00" y2="615" stroke="#f3f4f6" stroke-width="1"/>
<text class="tick" x="455.00" y="639" text-anchor="middle">2013</text>
<line x1="575.00" y1="55" x2="575.00" y2="615" stroke="#f3f4f6" stroke-width="1"/>
<text class="tick" x="575.00" y="639" text-anchor="middle">2015</text>
<line x1="695.00" y1="55" x2="695.00" y2="615" stroke="#f3f4f6" stroke-width="1"/>
<text class="tick" x="695.00" y="639" text-anchor="middle">2017</text>
<line x1="815.00" y1="55" x2="815.00" y2="615" stroke="#f3f4f6" stroke-width="1"/>
<text class="tick" x="815.00" y="639" text-anchor="middle">2019</text>
<line x1="935.00" y1="55" x2="935.00" y2="615" stroke="#f3f4f6" stroke-width="1"/>
<text class="tick" x="935.00" y="639" text-anchor="middle">2021</text>
<line x1="1055.00" y1="55" x2="1055.00" y2="615" stroke="#f3f4f6" stroke-width="1"/>
<text class="tick" x="1055.00" y="639" text-anchor="middle">2023</text>
<line x1="1155.00" y1="55" x2="1155.00" y2="615" stroke="#f3f4f6" stroke-width="1"/>
<text class="tick" x="1155.00" y="639" text-anchor="middle">2024-9</text>
<line x1="95" y1="615" x2="1155" y2="615" stroke="#111827" stroke-width="1.5"/>
<line x1="95" y1="55" x2="95" y2="615" stroke="#111827" stroke-width="1.5"/>
<text class="label" x="600.0" y="690" text-anchor="middle">Month</text>
<text class="label" transform="translate(24,360.0) rotate(-90)" text-anchor="middle">Cumulative deaths per resident</text>
<line x1="96.19" y1="55" x2="96.19" y2="615" stroke="#6b7280" stroke-width="1" stroke-dasharray="5 5" opacity="0.7"/>
<circle cx="96.19" cy="609.21" r="4" fill="#111827"/>
<line x1="653.74" y1="55" x2="653.74" y2="615" stroke="#6b7280" stroke-width="1" stroke-dasharray="5 5" opacity="0.7"/>
<circle cx="653.74" cy="435.22" r="4" fill="#111827"/>
<path d="M95.00,609.64 L100.00,607.85 L105.00,607.85 L110.00,607.85 L115.00,607.85 L120.00,606.06 L125.00,604.27 L130.00,602.48 L135.00,602.48 L140.00,598.91 L145.00,598.91 L150.00,598.91 L155.00,595.34 L160.00,591.78 L165.00,591.78 L170.00,590.00 L175.00,586.43 L180.00,586.43 L185.00,586.43 L190.00,584.65 L195.00,584.65 L200.00,582.86 L205.00,579.30 L210.00,577.52 L215.00,575.72 L220.00,575.72 L225.00,572.14 L230.00,570.34 L235.00,568.55 L240.00,568.55 L245.00,568.55 L250.00,566.75 L255.00,566.75 L260.00,566.75 L265.00,563.17 L270.00,563.17 L275.00,559.56 L280.00,559.56 L285.00,559.56 L290.00,559.56 L295.00,557.75 L300.00,557.75 L305.00,555.95 L310.00,555.95 L315.00,555.95 L320.00,554.15 L325.00,554.15 L330.00,552.34 L335.00,550.53 L340.00,548.72 L345.00,548.72 L350.00,548.72 L355.00,546.91 L360.00,546.91 L365.00,546.91 L370.00,545.10 L375.00,543.28 L380.00,541.47 L385.00,541.47 L390.00,541.47 L395.00,539.65 L400.00,534.20 L405.00,534.20 L410.00,532.38 L415.00,532.38 L420.00,530.56 L425.00,530.56 L430.00,530.56 L435.00,526.93 L440.00,523.29 L445.00,519.65 L450.00,519.65 L455.00,514.18 L460.00,514.18 L465.00,514.18 L470.00,514.18 L475.00,510.54 L480.00,508.71 L485.00,508.71 L490.00,508.71 L495.00,508.71 L500.00,508.71 L505.00,505.07 L510.00,505.07 L515.00,503.24 L520.00,503.24 L525.00,501.41 L530.00,499.58 L535.00,497.75 L540.00,497.75 L545.00,495.92 L550.00,494.09 L555.00,494.09 L560.00,488.59 L565.00,486.76 L570.00,484.93 L575.00,484.93 L580.00,484.93 L585.00,483.09 L590.00,481.26 L595.00,481.26 L600.00,479.42 L605.00,475.74 L610.00,470.23 L615.00,468.39 L620.00,464.71 L625.00,461.03 L630.00,457.36 L635.00,453.67 L640.00,451.82 L645.00,449.98 L650.00,440.75 L655.00,433.37 L660.00,431.52 L665.00,427.83 L670.00,422.30 L675.00,422.30 L680.00,422.30 L685.00,416.76 L690.00,414.92 L695.00,405.69 L700.00,392.77 L705.00,387.23 L710.00,381.69 L715.00,378.00 L720.00,374.31 L725.00,372.47 L730.00,368.77 L735.00,368.77 L740.00,365.08 L745.00,359.54 L750.00,359.54 L755.00,355.85 L760.00,355.85 L765.00,355.85 L770.00,352.15 L775.00,348.45 L780.00,348.45 L785.00,346.60 L790.00,342.90 L795.00,339.20 L800.00,337.35 L805.00,335.50 L810.00,335.50 L815.00,333.65 L820.00,329.93 L825.00,328.08 L830.00,324.36 L835.00,322.51 L840.00,318.79 L845.00,316.94 L850.00,311.37 L855.00,305.80 L860.00,303.94 L865.00,303.94 L870.00,303.94 L875.00,302.09 L880.00,298.37 L885.00,298.37 L890.00,298.37 L895.00,294.66 L900.00,294.66 L905.00,290.95 L910.00,290.95 L915.00,287.24 L920.00,287.24 L925.00,281.67 L930.00,270.54 L935.00,270.54 L940.00,266.81 L945.00,264.95 L950.00,261.23 L955.00,261.23 L960.00,259.37 L965.00,251.92 L970.00,248.20 L975.00,246.33 L980.00,244.47 L985.00,244.47 L990.00,244.47 L995.00,242.60 L1000.00,242.60 L1005.00,240.72 L1010.00,235.09 L1015.00,233.22 L1020.00,229.47 L1025.00,225.72 L1030.00,225.72 L1035.00,223.84 L1040.00,223.84 L1045.00,220.09 L1050.00,216.34 L1055.00,216.34 L1060.00,216.34 L1065.00,216.34 L1070.00,216.34 L1075.00,216.34 L1080.00,214.46 L1085.00,214.46 L1090.00,214.46 L1095.00,214.46 L1100.00,214.46 L1105.00,212.59 L1110.00,208.83 L1115.00,208.83 L1120.00,208.83 L1125.00,208.83 L1130.00,208.83 L1135.00,206.96 L1140.00,205.08 L1145.00,205.08 L1150.00,205.08 L1155.00,205.08" fill="none" stroke="#c2410c" stroke-width="3" stroke-linejoin="round" stroke-linecap="round"/>
<path d="M95.00,609.83 L100.00,607.24 L105.00,602.07 L110.00,602.07 L115.00,602.07 L120.00,596.89 L125.00,591.72 L130.00,591.72 L135.00,583.96 L140.00,578.79 L145.00,576.20 L150.00,576.20 L155.00,573.61 L160.00,571.03 L165.00,565.86 L170.00,563.28 L175.00,563.28 L180.00,563.28 L185.00,563.28 L190.00,560.69 L195.00,560.69 L200.00,555.52 L205.00,552.94 L210.00,547.77 L215.00,547.77 L220.00,542.59 L225.00,537.40 L230.00,534.81 L235.00,534.81 L240.00,532.22 L245.00,529.63 L250.00,529.63 L255.00,527.03 L260.00,527.03 L265.00,527.03 L270.00,527.03 L275.00,527.03 L280.00,527.03 L285.00,527.03 L290.00,527.03 L295.00,524.45 L300.00,524.45 L305.00,524.45 L310.00,521.87 L315.00,521.87 L320.00,519.29 L325.00,519.29 L330.00,516.71 L335.00,514.13 L340.00,511.54 L345.00,511.54 L350.00,506.38 L355.00,506.38 L360.00,506.38 L365.00,506.38 L370.00,498.63 L375.00,496.04 L380.00,496.04 L385.00,493.46 L390.00,490.88 L395.00,488.28 L400.00,488.28 L405.00,488.28 L410.00,488.28 L415.00,488.28 L420.00,483.08 L425.00,483.08 L430.00,480.48 L435.00,480.48 L440.00,480.48 L445.00,480.48 L450.00,480.48 L455.00,477.83 L460.00,477.83 L465.00,475.17 L470.00,469.85 L475.00,467.19 L480.00,467.19 L485.00,467.19 L490.00,467.19 L495.00,464.54 L500.00,461.88 L505.00,459.22 L510.00,459.22 L515.00,459.22 L520.00,459.22 L525.00,456.57 L530.00,453.92 L535.00,453.92 L540.00,453.92 L545.00,453.92 L550.00,453.92 L555.00,453.92 L560.00,451.27 L565.00,448.62 L570.00,448.62 L575.00,445.94 L580.00,445.94 L585.00,443.27 L590.00,443.27 L595.00,443.27 L600.00,443.27 L605.00,440.59 L610.00,440.59 L615.00,440.59 L620.00,440.59 L625.00,440.59 L630.00,440.59 L635.00,437.91 L640.00,435.22 L645.00,435.22 L650.00,435.22 L655.00,435.22 L660.00,435.22 L665.00,435.22 L670.00,435.22 L675.00,432.54 L680.00,429.85 L685.00,429.85 L690.00,424.48 L695.00,424.48 L700.00,421.80 L705.00,419.12 L710.00,416.44 L715.00,416.44 L720.00,411.07 L725.00,411.07 L730.00,405.71 L735.00,400.34 L740.00,400.34 L745.00,400.34 L750.00,400.34 L755.00,400.34 L760.00,394.96 L765.00,389.57 L770.00,389.57 L775.00,384.19 L780.00,384.19 L785.00,384.19 L790.00,378.81 L795.00,378.81 L800.00,376.12 L805.00,376.12 L810.00,373.42 L815.00,370.72 L820.00,370.72 L825.00,370.72 L830.00,370.72 L835.00,370.72 L840.00,370.72 L845.00,368.02 L850.00,368.02 L855.00,365.31 L860.00,362.61 L865.00,359.91 L870.00,359.91 L875.00,359.91 L880.00,359.91 L885.00,359.91 L890.00,357.19 L895.00,354.48 L900.00,354.48 L905.00,354.48 L910.00,354.48 L915.00,354.48 L920.00,351.77 L925.00,346.34 L930.00,346.34 L935.00,338.21 L940.00,332.80 L945.00,330.09 L950.00,327.38 L955.00,321.97 L960.00,319.26 L965.00,316.55 L970.00,308.43 L975.00,308.43 L980.00,300.30 L985.00,297.59 L990.00,292.18 L995.00,292.18 L1000.00,286.71 L1005.00,278.50 L1010.00,273.03 L1015.00,270.29 L1020.00,262.09 L1025.00,251.15 L1030.00,245.67 L1035.00,242.94 L1040.00,242.94 L1045.00,240.20 L1050.00,240.20 L1055.00,240.20 L1060.00,240.20 L1065.00,240.20 L1070.00,240.20 L1075.00,240.20 L1080.00,234.68 L1085.00,234.68 L1090.00,234.68 L1095.00,234.68 L1100.00,234.68 L1105.00,231.91 L1110.00,231.91 L1115.00,231.91 L1120.00,231.91 L1125.00,231.91 L1130.00,226.39 L1135.00,226.39 L1140.00,226.39 L1145.00,226.39 L1150.00,226.39 L1155.00,226.39" fill="none" stroke="#2563eb" stroke-width="3" stroke-linejoin="round" stroke-linecap="round"/>
<path d="M95.00,609.39 L100.00,609.39 L105.00,603.78 L110.00,603.78 L115.00,603.78 L120.00,592.56 L125.00,592.56 L130.00,586.95 L135.00,586.95 L140.00,586.95 L145.00,586.95 L150.00,586.95 L155.00,586.95 L160.00,586.95 L165.00,586.95 L170.00,581.30 L175.00,581.30 L180.00,581.30 L185.00,581.30 L190.00,581.30 L195.00,581.30 L200.00,569.98 L205.00,569.98 L210.00,569.98 L215.00,569.98 L220.00,564.33 L225.00,564.33 L230.00,564.33 L235.00,564.33 L240.00,564.33 L245.00,558.69 L250.00,558.69 L255.00,558.69 L260.00,553.04 L265.00,547.39 L270.00,541.74 L275.00,536.06 L280.00,536.06 L285.00,536.06 L290.00,530.39 L295.00,524.71 L300.00,524.71 L305.00,524.71 L310.00,524.71 L315.00,524.71 L320.00,524.71 L325.00,524.71 L330.00,524.71 L335.00,524.71 L340.00,524.71 L345.00,524.71 L350.00,524.71 L355.00,524.71 L360.00,524.71 L365.00,519.01 L370.00,519.01 L375.00,519.01 L380.00,519.01 L385.00,519.01 L390.00,519.01 L395.00,513.24 L400.00,513.24 L405.00,513.24 L410.00,513.24 L415.00,513.24 L420.00,513.24 L425.00,513.24 L430.00,507.47 L435.00,495.92 L440.00,495.92 L445.00,490.15 L450.00,490.15 L455.00,490.15 L460.00,490.15 L465.00,490.15 L470.00,490.15 L475.00,490.15 L480.00,490.15 L485.00,490.15 L490.00,490.15 L495.00,490.15 L500.00,490.15 L505.00,490.15 L510.00,484.40 L515.00,478.61 L520.00,478.61 L525.00,478.61 L530.00,478.61 L535.00,467.02 L540.00,467.02 L545.00,467.02 L550.00,467.02 L555.00,461.22 L560.00,461.22 L565.00,461.22 L570.00,461.22 L575.00,455.36 L580.00,455.36 L585.00,455.36 L590.00,455.36 L595.00,455.36 L600.00,455.36 L605.00,449.50 L610.00,449.50 L615.00,449.50 L620.00,443.64 L625.00,443.64 L630.00,443.64 L635.00,437.75 L640.00,437.75 L645.00,431.85 L650.00,425.95 L655.00,425.95 L660.00,425.95 L665.00,425.95 L670.00,425.95 L675.00,425.95 L680.00,425.95 L685.00,425.95 L690.00,425.95 L695.00,425.95 L700.00,420.07 L705.00,420.07 L710.00,420.07 L715.00,420.07 L720.00,420.07 L725.00,420.07 L730.00,420.07 L735.00,420.07 L740.00,420.07 L745.00,420.07 L750.00,420.07 L755.00,420.07 L760.00,414.21 L765.00,408.35 L770.00,408.35 L775.00,402.48 L780.00,402.48 L785.00,402.48 L790.00,396.62 L795.00,396.62 L800.00,396.62 L805.00,396.62 L810.00,396.62 L815.00,396.62 L820.00,390.70 L825.00,378.87 L830.00,378.87 L835.00,378.87 L840.00,378.87 L845.00,378.87 L850.00,378.87 L855.00,372.95 L860.00,372.95 L865.00,372.95 L870.00,372.95 L875.00,367.01 L880.00,367.01 L885.00,355.12 L890.00,349.17 L895.00,349.17 L900.00,343.23 L905.00,331.34 L910.00,331.34 L915.00,325.39 L920.00,313.50 L925.00,307.56 L930.00,307.56 L935.00,301.57 L940.00,295.58 L945.00,295.58 L950.00,289.59 L955.00,283.60 L960.00,277.61 L965.00,265.63 L970.00,253.64 L975.00,247.65 L980.00,235.67 L985.00,229.68 L990.00,223.69 L995.00,217.64 L1000.00,211.59 L1005.00,211.59 L1010.00,211.59 L1015.00,199.49 L1020.00,187.39 L1025.00,175.29 L1030.00,138.99 L1035.00,132.93 L1040.00,126.88 L1045.00,120.83 L1050.00,114.78 L1055.00,114.78 L1060.00,108.68 L1065.00,108.68 L1070.00,108.68 L1075.00,108.68 L1080.00,108.68 L1085.00,108.68 L1090.00,108.68 L1095.00,96.48 L1100.00,96.48 L1105.00,96.48 L1110.00,96.48 L1115.00,96.48 L1120.00,96.48 L1125.00,96.48 L1130.00,96.48 L1135.00,96.48 L1140.00,96.48 L1145.00,96.48 L1150.00,96.48 L1155.00,96.48" fill="none" stroke="#15803d" stroke-width="3" stroke-linejoin="round" stroke-linecap="round"/>
<text class="legend" x="1163.00" y="210.08" fill="#c2410c">Preble</text>
<text class="legend" x="1163.00" y="231.39" fill="#2563eb">Hocking</text>
<text class="legend" x="1163.00" y="101.48" fill="#15803d">Vinton</text>
<line x1="95" y1="648" x2="129" y2="648" stroke="#c2410c" stroke-width="4" stroke-linecap="round"/>
<text class="legend" x="139" y="653">Preble</text>
<line x1="240" y1="648" x2="274" y2="648" stroke="#2563eb" stroke-width="4" stroke-linecap="round"/>
<text class="legend" x="284" y="653">Hocking</text>
<line x1="385" y1="648" x2="419" y2="648" stroke="#15803d" stroke-width="4" stroke-linecap="round"/>
<text class="legend" x="429" y="653">Vinton</text>
<text class="note" x="95" y="672">Dashed marker(s): Hocking/Preble cumulative-normalized crossings (2007_1 to 2007_2; 2016_4 to 2016_5).</text>
</svg>